<?xml version="1.0" encoding="UTF-8" standalone="no"?><!DOCTYPE svg PUBLIC "-//W3C//DTD SVG 1.1//EN" "http://www.w3.org/Graphics/SVG/1.1/DTD/svg11.dtd"><svg width="85px" height="85px" version="1.1" xmlns="http://www.w3.org/2000/svg" xmlns:xlink="http://www.w3.org/1999/xlink" xml:space="preserve" xmlns:serif="http://www.serif.com/" style="fill-rule:evenodd;clip-rule:evenodd;stroke-linejoin:round;stroke-miterlimit:1.41421;"><circle cx="42.5" cy="42.5" r="42.5" style="fill:white;"/><g transform="matrix(1,0,0,1,3.05084,-3.28305)"><path d="M34.599,49.941C35.159,48.178 36.85,41.694 37.255,38.726C37.565,36.459 37.321,33.501 37.173,31.862C37.081,30.842 36.647,29.571 36.369,28.894C36.168,28.405 35.657,27.691 36.095,27.718C36.61,27.748 38.475,28.431 39.461,29.08C40.414,29.708 41.156,30.632 41.831,31.553C42.714,32.759 43.957,34.8 44.758,36.314C45.492,37.705 46.118,39.368 46.633,40.643C47.075,41.735 47.523,43.684 47.87,44.203C48.035,44.45 48.792,44.042 48.715,43.755C48.409,42.611 46.84,38.932 46.015,37.098C45.346,35.609 44.649,34.122 43.769,32.749C42.872,31.351 41.673,29.805 40.636,28.709C39.719,27.741 38.623,26.871 37.544,26.174C36.491,25.493 34.854,24.834 34.164,24.525C33.923,24.417 33.446,24.177 33.243,24.335C33.041,24.493 32.804,25.215 32.89,25.62C32.996,26.121 33.687,26.703 34.04,27.328C34.432,28.022 34.967,28.825 35.297,29.636C35.686,30.591 36.188,31.877 36.369,33.058C36.558,34.288 36.494,35.697 36.431,37.015C36.362,38.441 36.268,40.103 35.957,41.611C35.534,43.659 34.011,48.186 33.808,49.529C33.762,49.833 34.506,50.234 34.599,49.941Z"/></g><path d="M39.02,46.635C40.524,46.353 41.779,46.529 42.617,47.377C43.456,48.224 44.174,50.198 44.051,51.717C43.926,53.257 42.934,55.305 41.865,56.614C40.797,57.923 39.291,59.097 37.639,59.573C35.986,60.049 33.379,59.946 31.948,59.47C30.684,59.049 29.762,57.843 29.051,56.717C28.235,55.425 27.248,53.281 27.051,51.717C26.865,50.243 27.202,48.61 27.865,47.335C28.529,46.06 29.84,44.588 31.03,44.067C32.221,43.547 34.172,43.504 35.01,44.212C36.573,45.532 36.383,46.313 37.051,46.717C37.613,47.057 38.346,46.761 39.02,46.635ZM41.103,50.275C41.842,50.173 42.021,51.982 41.749,53.204C41.526,54.209 40.628,55.544 39.744,56.304C38.714,57.19 36.327,57.97 36.195,57.479C36.038,56.9 39.086,55.191 39.787,53.918C40.481,52.659 40.639,50.34 41.103,50.275Z"/><path d="M52.841,39.797C53.848,38.644 54.846,38.108 56.004,38.274C57.167,38.441 58.974,39.526 59.817,40.796C60.672,42.082 61.161,44.304 61.132,45.994C61.103,47.684 60.467,49.598 59.644,50.935C58.836,52.248 57.612,53.504 56.193,54.016C54.775,54.528 52.753,54.457 51.132,54.008C49.511,53.559 47.589,52.425 46.466,51.319C45.407,50.277 44.662,48.786 44.393,47.374C44.125,45.962 44.243,43.994 44.856,42.848C45.469,41.702 46.975,40.461 48.07,40.498C50.115,40.567 50.429,41.319 51.224,41.202C51.931,41.098 52.379,40.325 52.841,39.797ZM56.765,41.647C57.293,41.12 58.527,42.455 59.048,43.593C59.476,44.53 59.565,46.136 59.319,47.275C59.032,48.603 57.599,50.665 57.197,50.354C56.723,49.987 58.122,46.785 57.914,45.347C57.707,43.924 56.434,41.979 56.765,41.647Z"/></svg>